<svg xmlns="http://www.w3.org/2000/svg" viewBox="0 0 512 512">
  <path fill="#FFFC00" d="M256 0C114.6 0 0 114.6 0 256s114.6 256 256 256 256-114.6 256-256S397.4 0 256 0z"/>
  <path d="M406.5 295.6c-2.8-1.4-5.5-2.7-8-4-12.2-6.2-20.8-11.9-25.6-17.2-3.2-3.5-4.1-6.4-3.1-9.3.8-2.1 2.7-3.8 5.8-5.1 2.4-.9 4.9-1.4 7.5-1.4h.3c7.1.1 12.4 2.1 16.2 6.2 2.4 2.5 3.6 5.1 4.8 7.6l.9 2c3.3 7.3 6.8 8.9 8.5 9.1 1 .1 2 0 3-.3.7-.9 1.4-2 2-3.1.2-.4.4-.8.6-1.1 5.7-10.9 8.7-22.8 8.7-35.4 0-1.9-.1-3.9-.2-5.8-3.7-51.5-47.9-93.6-100.9-97.3-4.1-.3-8.2-.4-12.2-.4-52 0-97.6 29.7-119.9 73.3-.1.1-.1.2-.2.3-6.3 12.3-10.1 26-11.2 40.3-.1 1.2-.1 2.5-.1 3.7 0 12.3 2.9 23.8 8.1 34.1.1.3.3.6.4.9 1.3 2.4 2.7 4.5 4.3 6.4.3.4.6.7.9 1 1 1.2 2 2.2 3.1 3.2l.4.4c-1.3.7-2.8 1.5-4.4 2.4-3.7 2-8.1 4.5-13.1 7.3h-.1c-9.9 5.5-15.7 8.4-18.1 9.2-3.2 1.1-6.5 1.7-9.8 1.7-3.9 0-7.1-.7-9.5-2.2-3.2-2-4.9-5.2-4.9-9.2 0-1.7.3-3.5.9-5.3l.2-.6c1.6-4.7 5.4-11.7 11.4-20.8.2-.3.5-.7.7-1 3-4.4 5.7-7.1 8.4-8.4 3.7-1.7 8.7-2.9 15.1-3.5 2.6-.2 4.9-.7 7-1.5 3.6-1.3 5.8-3.2 6.7-5.7 1.1-3.1.2-6.5-2.8-10.1-4.6-5.5-13.4-11.4-26.1-17.7-2.2-1.1-4.5-2.2-6.9-3.4-26.6-13-42.7-25.6-49.1-38.4-2.7-5.5-4.2-11.6-4.2-18 0-8.7 2.9-16.8 8.1-23.2 4.1-5 9.7-9.1 16.8-12.5 10.9-5.1 24.7-8.2 39.7-8.2 6.9 0 14 .7 21.1 2.1 5.7 1.1 10.8 2.9 15.3 5.3-.3-8.9-.4-15.8-.5-20.8-.1-8.9-.2-13.1.3-18.3.6-6.8 2-13.7 5.3-19.6 2.7-4.8 6.5-9.1 11.8-12 7.3-4 17.1-5 27.8-5 6.4 0 13.2.5 20.4 1.4 2.9.4 5.7.8 8.6 1.3 4.2.8 8.4 1.6 12.5 2.6.1 0 .3.1.4.1 3.4.8 6.3 1.5 8.5 2.3 2.7.9 5.2 2.4 6.2 5.1.4 1 .5 2.1.5 3.2 0 .6 0 1.2-.1 1.8 0 .3-.1.6-.1.9-.4 2.9-.6 7.9-.8 14.9-.2 7.9-.4 17.4-.6 27.9 8.7-4.2 18.7-7
 25.5-8.5 8.1-1.8 16.6-2.8 25.3-2.8 50.7 0 93.1 34.2 105.8 80.8 1.5 5.5 2.6 11.2 3.2 17 .3 2.5.4 5 .5 7.5 0 1.1.1 2.2.1 3.2 0 30.6-14.1 57.9-36.1 75.8-.1.1-.2.2-.4.3-2.6 2.1-5.3 4-8.1 5.8-1.3.8-2.6 1.6-3.9 2.3l-.2.1c-1.9 1.1-3.8 2-5.8 2.9l-1 .4c-5.3 2.4-10.9 4.4-16.7 5.9l-.9.2c-3.9 1-7.9 1.7-11.9 2.2l-.6.1c-2.7.3-5.5.5-8.3.6h-1.2c-5.4 0-10.6-.5-15.7-1.5l-.8-.2c-2.9-.6-5.8-1.3-8.5-2.2l-1.4-.5c-6.6-2.3-12.8-5.5-18.5-9.3-2.2-1.5-4.3-3.1-6.3-4.8-1-.8-1.9-1.7-2.9-2.6l-.4-.4z"/>
</svg>
